<?xml version="1.0" encoding="UTF-8"?>
<svg width="24px" height="24px" viewBox="0 0 24 24" version="1.1" xmlns="http://www.w3.org/2000/svg" xmlns:xlink="http://www.w3.org/1999/xlink">
    <!-- Generator: Sketch 46.2 (44496) - http://www.bohemiancoding.com/sketch -->
    <title>1</title>
    <desc>Created with Sketch.</desc>
    <defs></defs>
    <g id="Page-1" stroke="none" stroke-width="1" fill="none" fill-rule="evenodd">
        <g id="1" fill-rule="nonzero" fill="#52555A">
            <path d="M12,17.0960533 L17.5623059,20 L16.5,13.8493422 L21,9.49342219 L14.7811529,8.59605331 L12,3 L9.21884705,8.59605331 L3,9.49342219 L7.5,13.8493422 L6.4376941,20 L12,17.0960533 Z M12,18.2241328 L6.90049485,20.8864623 C6.16646131,21.2696837 5.31135444,20.645773 5.45228359,19.8298056 L6.42460699,14.2001386 L2.30448942,10.211938 C1.70747134,9.63403515 2.03479417,8.62234236 2.85718096,8.50367337 L8.55681334,7.68122628 L11.1044953,2.55494787 C11.4722295,1.81501738 12.5277705,1.81501738 12.8955047,2.55494787 L15.4431867,7.68122628 L21.142819,8.50367337 C21.9652058,8.62234236 22.2925287,9.63403515 21.6955106,10.211938 L17.575393,14.2001386 L18.5477164,19.8298056 C18.6886456,20.645773 17.8335387,21.2696837 17.0995051,20.8864623 L12,18.2241328 Z" id="Star"></path>
        </g>
    </g>
</svg>