<?xml version="1.0" encoding="UTF-8"?>
<svg width="24px" height="24px" viewBox="0 0 24 24" version="1.1" xmlns="http://www.w3.org/2000/svg" xmlns:xlink="http://www.w3.org/1999/xlink">
    <!-- Generator: Sketch 46.2 (44496) - http://www.bohemiancoding.com/sketch -->
    <title>125</title>
    <desc>Created with Sketch.</desc>
    <defs></defs>
    <g id="Page-1" stroke="none" stroke-width="1" fill="none" fill-rule="evenodd">
        <g id="125" fill-rule="nonzero" fill="#52555A">
            <path d="M12,17.0960533 L17.5623059,20 L16.5,13.8493422 L21,9.49342219 L14.7811529,8.59605331 L12,3 L9.21884705,8.59605331 L3,9.49342219 L7.5,13.8493422 L6.4376941,20 L12,17.0960533 Z M7.01619504,21.1080779 C6.09865311,21.5871046 5.02976952,20.8072163 5.20593096,19.787257 L6.15575873,14.2878377 L2.13061178,10.391567 C1.38433917,9.66918839 1.79349272,8.40457241 2.8214762,8.25623617 L8.39130491,7.45251952 L10.8806192,2.44368484 C11.3402869,1.51877172 12.6597131,1.51877172 13.1193808,2.44368484 L15.6086951,7.45251952 L21.1785238,8.25623617 C22.2065073,8.40457241 22.6156608,9.66918839 21.8693882,10.391567 L17.8442413,14.2878377 L18.794069,19.787257 C18.9702305,20.8072163 17.9013469,21.5871046 16.983805,21.1080779 L12,18.5061527 L7.01619504,21.1080779 Z" id="Star"></path>
        </g>
    </g>
</svg>