<?xml version="1.0" encoding="UTF-8"?>
<svg width="24px" height="24px" viewBox="0 0 24 24" version="1.1" xmlns="http://www.w3.org/2000/svg" xmlns:xlink="http://www.w3.org/1999/xlink">
    <!-- Generator: Sketch 46.2 (44496) - http://www.bohemiancoding.com/sketch -->
    <title>2</title>
    <desc>Created with Sketch.</desc>
    <defs></defs>
    <g id="Page-1" stroke="none" stroke-width="1" fill="none" fill-rule="evenodd">
        <g id="2" fill-rule="nonzero" fill="#52555A">
            <path d="M12,17.0960533 L17.5623059,20 L16.5,13.8493422 L21,9.49342219 L14.7811529,8.59605331 L12,3 L9.21884705,8.59605331 L3,9.49342219 L7.5,13.8493422 L6.4376941,20 L12,17.0960533 Z M7.3632956,21.7729247 C5.89522851,22.5393673 4.18501478,21.291546 4.46687308,19.6596112 L5.34921397,14.550935 L1.60897884,10.9304539 C0.414942674,9.77464811 1.06958835,7.75126254 2.71436191,7.51392456 L7.89477962,6.76639924 L10.2089907,2.10989574 C10.944459,0.630034752 13.055541,0.630034752 13.7910093,2.10989574 L16.1052204,6.76639924 L21.2856381,7.51392456 C22.9304117,7.75126254 23.5850573,9.77464811 22.3910212,10.9304539 L18.650786,14.550935 L19.5331269,19.6596112 C19.8149852,21.291546 18.1047715,22.5393673 16.6367044,21.7729247 L12,19.3522124 L7.3632956,21.7729247 Z" id="Star"></path>
        </g>
    </g>
</svg>